<svg xmlns="http://www.w3.org/2000/svg" xmlns:xlink="http://www.w3.org/1999/xlink" id="Layer_1" viewBox="0 0 512 512" xml:space="preserve"><g><g><linearGradient gradientUnits="userSpaceOnUse" id="SVGID_1_" x1="-0.0000027" x2="512" y1="256" y2="256"><stop offset="0" style="stop-color:#00AEEE"></stop><stop offset="1" style="stop-color:#0095DA"></stop></linearGradient><circle cx="256" cy="256" fill="url(#SVGID_1_)" r="256"></circle><linearGradient gradientUnits="userSpaceOnUse" id="SVGID_2_" x1="42.6666641" x2="469.3333435" y1="256.0005188" y2="256.0005188"><stop offset="0" style="stop-color:#0095DA"></stop><stop offset="1" style="stop-color:#00AEEE"></stop></linearGradient><path d="M256,469.3338623c-117.6315002,0-213.3333435-95.7018738-213.3333435-213.3333435    S138.3684998,42.6671982,256,42.6671982c117.6357117,0,213.3333435,95.7018661,213.3333435,213.333313    S373.6357117,469.3338623,256,469.3338623z" fill="url(#SVGID_2_)"></path></g><g id="XMLID_110_"><path d="M384,301.1759949c0,24.5760193-19.9679871,44.5440063-44.4960022,44.5440063H188.4960022    C163.9680023,345.7200012,144,325.7520142,144,301.1759949c0-17.1359863,10.0319977-32.7839966,25.3439941-40.1279907    c-0.4319916-2.4960022-0.6719971-4.9920044-0.6719971-7.4880066c0-24.095993,19.5839996-43.6799927,43.6800079-43.6799927    c10.2719879,0,20.0639954,3.552002,27.8399963,9.9839935c8.3999939-22.223999,30.0479889-37.5839996,54.2880096-37.5839996    c32.0639954,0,58.1279907,26.0639954,58.1279907,58.0800018c0,6-0.9119873,11.8560028-2.7359924,17.5200043    C369.6960144,262.5840149,384,280.2479858,384,301.1759949z" opacity="0.3"></path></g><g id="XMLID_140_"><path d="M376,293.1759949c0,24.5760193-19.9679871,44.5440063-44.4960022,44.5440063H180.4960022    C155.9680023,337.7200012,136,317.7520142,136,293.1759949c0-17.1359863,10.0319977-32.7839966,25.3439941-40.1279907    c-0.4319916-2.4960022-0.6719971-4.9920044-0.6719971-7.4880066c0-24.095993,19.5839996-43.6799927,43.6800079-43.6799927    c10.2719879,0,20.0639954,3.552002,27.8399963,9.9839935c8.3999939-22.223999,30.0479889-37.5839996,54.2880096-37.5839996    c32.0639954,0,58.1279907,26.0639954,58.1279907,58.0800018c0,6-0.9119873,11.8560028-2.7359924,17.5200043    C361.6960144,254.5839996,376,272.2479858,376,293.1759949z" fill="#FFFFFF"></path></g></g></svg>