<svg xmlns="http://www.w3.org/2000/svg" xmlns:cc="http://creativecommons.org/ns#" xmlns:dc="http://purl.org/dc/elements/1.1/" xmlns:inkscape="http://www.inkscape.org/namespaces/inkscape" xmlns:rdf="http://www.w3.org/1999/02/22-rdf-syntax-ns#" xmlns:sodipodi="http://sodipodi.sourceforge.net/DTD/sodipodi-0.dtd" xmlns:svg="http://www.w3.org/2000/svg" height="32" id="svg17515" viewBox="0 0 32 32.000001" width="32"><defs id="defs17517"><clipPath clipPathUnits="userSpaceOnUse" id="clipPath32617-9-8-8-9"><circle cx="-64.623535" cy="50.047192" id="path32619-2-3-5-1" r="38.553814" style="fill:#4bb7c0;fill-opacity:1;stroke:none" transform="matrix(9.3443438,0,0,9.3443438,-627.91229,-5859.5225)"></circle></clipPath><clipPath clipPathUnits="userSpaceOnUse" id="clipPath19550"><circle cx="-64.623535" cy="50.047192" id="circle19552" r="38.553814" style="fill:#4bb7c0;fill-opacity:1;stroke:none" transform="matrix(9.3443438,0,0,9.3443438,-627.91229,-5859.5225)"></circle></clipPath></defs><g id="layer1" transform="translate(0,-1020.3622)"><g id="g42614" style="display:inline" transform="translate(486.34291,120.26375)"><g id="g41704"><path d="m -475.74023,904.41211 -0.70704,0.70703 1.80469,1.80469 0.70703,-0.70703 z" id="path23166" style="color:#000000;font-style:normal;font-variant:normal;font-weight:normal;font-stretch:normal;font-size:medium;line-height:normal;font-family:sans-serif;text-indent:0;text-align:start;text-decoration:none;text-decoration-line:none;text-decoration-style:solid;text-decoration-color:#000000;letter-spacing:normal;word-spacing:normal;text-transform:none;direction:ltr;writing-mode:lr-tb;baseline-shift:baseline;text-anchor:start;white-space:normal;clip-rule:nonzero;display:inline;overflow:visible;visibility:visible;opacity:1;isolation:auto;mix-blend-mode:normal;color-interpolation:sRGB;color-interpolation-filters:linearRGB;solid-color:#000000;solid-opacity:1;fill:#545773;fill-opacity:1;fill-rule:evenodd;stroke:none;stroke-width:0.99999988px;stroke-linecap:butt;stroke-linejoin:miter;stroke-miterlimit:4;stroke-dasharray:none;stroke-dashoffset:0;stroke-opacity:1;color-rendering:auto;image-rendering:auto;shape-rendering:auto;text-rendering:auto;enable-background:accumulate"></path><path d="m -474.36328,905.78993 c -0.25165,0.21989 -0.48091,0.46247 -0.69141,0.72266 l 0.41211,0.41211 0.70703,-0.70703 z" id="path41650" style="opacity:1;fill:#50536b;fill-opacity:1;stroke:none;stroke-width:1;stroke-linecap:round;stroke-linejoin:round;stroke-miterlimit:4;stroke-dasharray:none;stroke-dashoffset:0;stroke-opacity:1"></path><path d="m -465.94727,904.41211 -1.80468,1.80469 0.70703,0.70703 1.80469,-1.80469 z" id="path23173" style="color:#000000;font-style:normal;font-variant:normal;font-weight:normal;font-stretch:normal;font-size:medium;line-height:normal;font-family:sans-serif;text-indent:0;text-align:start;text-decoration:none;text-decoration-line:none;text-decoration-style:solid;text-decoration-color:#000000;letter-spacing:normal;word-spacing:normal;text-transform:none;direction:ltr;writing-mode:lr-tb;baseline-shift:baseline;text-anchor:start;white-space:normal;clip-rule:nonzero;display:inline;overflow:visible;visibility:visible;opacity:1;isolation:auto;mix-blend-mode:normal;color-interpolation:sRGB;color-interpolation-filters:linearRGB;solid-color:#000000;solid-opacity:1;fill:#545773;fill-opacity:1;fill-rule:evenodd;stroke:none;stroke-width:0.99999988px;stroke-linecap:butt;stroke-linejoin:miter;stroke-miterlimit:4;stroke-dasharray:none;stroke-dashoffset:0;stroke-opacity:1;color-rendering:auto;image-rendering:auto;shape-rendering:auto;text-rendering:auto;enable-background:accumulate"></path><path d="m -467.32227,905.78798 -0.42968,0.42969 0.70703,0.70703 0.41211,-0.41211 c -0.21044,-0.25995 -0.43789,-0.50491 -0.68946,-0.72461 z" id="path41648" style="opacity:1;fill:#50536b;fill-opacity:1;stroke:none;stroke-width:1;stroke-linecap:round;stroke-linejoin:round;stroke-miterlimit:4;stroke-dasharray:none;stroke-dashoffset:0;stroke-opacity:1"></path><path d="m -475.93364,910.23285 c 0.001,-1.96267 0.97315,-3.77546 2.54946,-4.75521 1.57626,-0.97985 3.51737,-0.97774 5.09181,0.006 1.57441,0.98332 2.54279,2.79832 2.54021,4.76098 -3.22319,0.80678 -6.59175,0.92303 -10.18148,-0.0112 z" id="path5726-8" style="opacity:1;fill:#545773;fill-opacity:1;stroke:none;stroke-width:1;stroke-linecap:round;stroke-linejoin:round;stroke-miterlimit:4;stroke-dasharray:none;stroke-dashoffset:0;stroke-opacity:1"></path><path d="m -475.93006,910.03055 c -3.702,1.7823 -5.41167,5.3501 -5.41285,9.245 0,5.7442 4.35989,9.8229 10.5,9.8229 6.14011,0 10.5,-4.0787 10.5,-9.8229 -0.004,-3.8984 -1.72119,-7.4671 -5.42975,-9.245 -3.43583,0.7383 -6.69908,0.5566 -10.1574,0 z" id="path5720-3" style="opacity:1;fill:#ff766c;fill-opacity:1;stroke:none;stroke-width:1;stroke-linecap:round;stroke-linejoin:round;stroke-miterlimit:4;stroke-dasharray:none;stroke-dashoffset:0;stroke-opacity:1"></path><path d="m -473.34293,914.09882 a 1,1 0 0 1 -1,1 1,1 0 0 1 -1,-1 1,1 0 0 1 1,-1 1,1 0 0 1 1,1 z" id="circle5740-2" style="opacity:1;fill:#545773;fill-opacity:1;stroke:none;stroke-width:1;stroke-linecap:round;stroke-linejoin:round;stroke-miterlimit:4;stroke-dasharray:none;stroke-dashoffset:0;stroke-opacity:1"></path><path d="m -475.34293,918.84845 a 1.5,1.5 0 0 1 -1.5,1.5 1.5,1.5 0 0 1 -1.5,-1.5 1.5,1.5 0 0 1 1.5,-1.5 1.5,1.5 0 0 1 1.5,1.5 z" id="circle5748-6" style="opacity:1;fill:#545773;fill-opacity:1;stroke:none;stroke-width:0.99999988;stroke-linecap:round;stroke-linejoin:round;stroke-miterlimit:4;stroke-dasharray:none;stroke-dashoffset:0;stroke-opacity:1"></path><path d="m -473.59293,924.09845 a 1.25,1.25 0 0 1 -1.25,1.25 1.25,1.25 0 0 1 -1.25,-1.25 1.25,1.25 0 0 1 1.25,-1.25 1.25,1.25 0 0 1 1.25,1.25 z" id="ellipse23179" style="opacity:1;fill:#545773;fill-opacity:1;stroke:none;stroke-width:0.99999994;stroke-linecap:round;stroke-linejoin:round;stroke-miterlimit:4;stroke-dasharray:none;stroke-dashoffset:0;stroke-opacity:1"></path><path d="m -468.34293,914.09882 a 1,1 0 0 0 1,1 1,1 0 0 0 1,-1 1,1 0 0 0 -1,-1 1,1 0 0 0 -1,1 z" id="circle23194" style="opacity:1;fill:#545773;fill-opacity:1;stroke:none;stroke-width:1;stroke-linecap:round;stroke-linejoin:round;stroke-miterlimit:4;stroke-dasharray:none;stroke-dashoffset:0;stroke-opacity:1"></path><path d="m -466.34293,918.84845 a 1.5,1.5 0 0 0 1.5,1.5 1.5,1.5 0 0 0 1.5,-1.5 1.5,1.5 0 0 0 -1.5,-1.5 1.5,1.5 0 0 0 -1.5,1.5 z" id="circle23196" style="opacity:1;fill:#545773;fill-opacity:1;stroke:none;stroke-width:0.99999988;stroke-linecap:round;stroke-linejoin:round;stroke-miterlimit:4;stroke-dasharray:none;stroke-dashoffset:0;stroke-opacity:1"></path><path d="m -468.09293,924.09845 a 1.25,1.25 0 0 0 1.25,1.25 1.25,1.25 0 0 0 1.25,-1.25 1.25,1.25 0 0 0 -1.25,-1.25 1.25,1.25 0 0 0 -1.25,1.25 z" id="circle23198" style="opacity:1;fill:#545773;fill-opacity:1;stroke:none;stroke-width:0.99999994;stroke-linecap:round;stroke-linejoin:round;stroke-miterlimit:4;stroke-dasharray:none;stroke-dashoffset:0;stroke-opacity:1"></path><path d="m -468.5929,918.84845 a 2.125,2.125 0 0 1 -2.125,2.125 2.125,2.125 0 0 1 -2.125,-2.125 2.125,2.125 0 0 1 2.125,-2.125 2.125,2.125 0 0 1 2.125,2.125 z" id="circle39589" style="opacity:1;fill:#545773;fill-opacity:1;stroke:none;stroke-width:0.99999982;stroke-linecap:round;stroke-linejoin:round;stroke-miterlimit:4;stroke-dasharray:none;stroke-dashoffset:0;stroke-opacity:1"></path><path d="m -475.74023,-115.94922 -0.70704,0.70703 0.30469,0.30469 a 1.4999941,1.4998634 0 0 0 0.67774,-0.73633 z" id="path41660" style="opacity:1;fill:#50536b;fill-opacity:1;stroke:none;stroke-width:0.99999994;stroke-linecap:round;stroke-linejoin:round;stroke-miterlimit:4;stroke-dasharray:none;stroke-dashoffset:0;stroke-opacity:1" transform="translate(0,1020.3622)"></path><path d="m -465.94727,-115.94922 -0.27343,0.27344 a 1.4999941,1.4998634 0 0 0 0.67578,0.73828 l 0.30469,-0.30469 z" id="path41679" style="opacity:1;fill:#50536b;fill-opacity:1;stroke:none;stroke-width:0.99999994;stroke-linecap:round;stroke-linejoin:round;stroke-miterlimit:4;stroke-dasharray:none;stroke-dashoffset:0;stroke-opacity:1" transform="translate(0,1020.3622)"></path><path d="m -463.57765,904.09845 a 1.2652291,1.2651189 0 0 1 -1.26523,1.26514 1.2652291,1.2651189 0 0 1 -1.26523,-1.26514 1.2652291,1.2651189 0 0 1 1.26523,-1.26515 1.2652291,1.2651189 0 0 1 1.26523,1.26515 z" id="path39605" style="opacity:1;fill:#ff766c;fill-opacity:1;stroke:none;stroke-width:1;stroke-linecap:round;stroke-linejoin:round;stroke-miterlimit:4;stroke-dasharray:none;stroke-dashoffset:0;stroke-opacity:1"></path><path d="m -475.57771,904.09845 a 1.2652291,1.2651189 0 0 1 -1.26523,1.26514 1.2652291,1.2651189 0 0 1 -1.26523,-1.26514 1.2652291,1.2651189 0 0 1 1.26523,-1.26515 1.2652291,1.2651189 0 0 1 1.26523,1.26515 z" id="path5148-3" style="opacity:1;fill:#ff766c;fill-opacity:1;stroke:none;stroke-width:1;stroke-linecap:round;stroke-linejoin:round;stroke-miterlimit:4;stroke-dasharray:none;stroke-dashoffset:0;stroke-opacity:1"></path><path d="m -475.92969,-110.33203 c -0.17367,0.0836 -0.33897,0.17626 -0.5039,0.26758 -0.002,0.0597 -0.0117,0.11778 -0.0117,0.17773 l 0,0.002 c 3.95098,1.02822 7.65753,0.89969 11.20508,0.0117 8e-5,-0.0626 -0.01,-0.12326 -0.0117,-0.18554 -0.17008,-0.0942 -0.34213,-0.18746 -0.52149,-0.27344 -3.43583,0.7383 -6.69793,0.5566 -10.15625,0 z" id="path42590" style="opacity:1;fill:#ea6153;fill-opacity:1;stroke:none;stroke-width:1;stroke-linecap:round;stroke-linejoin:round;stroke-miterlimit:4;stroke-dasharray:none;stroke-dashoffset:0;stroke-opacity:1" transform="translate(0,1020.3622)"></path></g></g></g></svg>