<svg xmlns="http://www.w3.org/2000/svg" xmlns:xlink="http://www.w3.org/1999/xlink" style="enable-background:new 0 0 512 512;" viewBox="0 0 512 512" xml:space="preserve"><style type="text/css">	.st0{fill:#16ADE1;}	.st1{fill:#1B3954;}</style><g id="Layer_1"></g><g id="Layer_2"><g><g><g><path class="st1" d="M443.94,296.47c-2.36,0-4.67-1.2-5.99-3.37c-12.52-20.61-32-35.97-54.86-43.25      c-3.68-1.17-5.72-5.11-4.55-8.79s5.11-5.72,8.79-4.54c26.08,8.31,48.3,25.82,62.57,49.32c2.01,3.3,0.96,7.61-2.35,9.62      C446.43,296.15,445.18,296.47,443.94,296.47z"></path></g><g><path class="st1" d="M126.79,275.81c-0.7,0-1.42-0.11-2.13-0.33c-29.99-9.55-54.88-31.41-68.29-59.97      c-1.64-3.5-0.14-7.67,3.36-9.31c3.5-1.65,7.67-0.14,9.31,3.36c11.76,25.04,33.58,44.21,59.87,52.58      c3.68,1.17,5.72,5.11,4.55,8.79C132.51,273.91,129.75,275.81,126.79,275.81z"></path></g><g><path class="st1" d="M353.02,296.48c-3.87,0-7-3.13-7-7V232.1H165.97v50.38h147.88c3.87,0,7,3.13,7,7s-3.13,7-7,7H158.97      c-3.87,0-7-3.13-7-7V225.1c0-3.87,3.13-7,7-7h194.05c3.87,0,7,3.13,7,7v64.38C360.02,293.34,356.89,296.48,353.02,296.48z"></path></g><g><path class="st1" d="M471.28,498.5H406.9c-3.87,0-7-3.13-7-7V367.78c0-3.87,3.13-7,7-7h64.38c3.87,0,7,3.13,7,7s-3.13,7-7,7      H413.9V484.5h50.38v-88.95c0-3.87,3.13-7,7-7s7,3.13,7,7v95.95C478.28,495.37,475.15,498.5,471.28,498.5z"></path></g><g><path class="st1" d="M104.18,99.23c-0.45,0-0.91-0.04-1.36-0.13c-0.45-0.09-0.89-0.23-1.31-0.4c-0.43-0.18-0.83-0.39-1.21-0.65      c-0.39-0.25-0.74-0.54-1.07-0.87c-0.32-0.32-0.61-0.68-0.87-1.06c-0.25-0.38-0.47-0.79-0.64-1.21c-0.18-0.42-0.31-0.86-0.4-1.31      s-0.14-0.91-0.14-1.37c0-0.45,0.05-0.91,0.14-1.36c0.09-0.45,0.22-0.89,0.4-1.31c0.17-0.43,0.39-0.83,0.64-1.21      c0.26-0.39,0.55-0.74,0.87-1.07c0.33-0.32,0.68-0.61,1.07-0.87c0.38-0.25,0.78-0.47,1.21-0.64c0.42-0.17,0.86-0.31,1.3-0.4      c0.91-0.18,1.84-0.18,2.74,0c0.45,0.09,0.89,0.23,1.31,0.4s0.83,0.39,1.21,0.64c0.38,0.26,0.74,0.55,1.06,0.87      c0.33,0.33,0.62,0.68,0.87,1.07c0.26,0.38,0.47,0.78,0.65,1.21c0.17,0.42,0.31,0.86,0.4,1.31c0.09,0.45,0.13,0.91,0.13,1.36      c0,0.46-0.04,0.92-0.13,1.37s-0.23,0.89-0.4,1.31c-0.18,0.42-0.39,0.83-0.65,1.21c-0.25,0.38-0.54,0.74-0.87,1.06      c-0.32,0.33-0.68,0.62-1.06,0.87c-0.38,0.26-0.79,0.47-1.21,0.65c-0.42,0.17-0.86,0.31-1.31,0.4      C105.1,99.19,104.64,99.23,104.18,99.23z"></path></g><g><path class="st1" d="M104.18,151.22H39.8c-3.87,0-7-3.13-7-7V20.5c0-3.87,3.13-7,7-7h64.38c3.87,0,7,3.13,7,7v51.31      c0,3.87-3.13,7-7,7s-7-3.13-7-7V27.5H46.8v109.72h50.38v-22.86c0-3.87,3.13-7,7-7s7,3.13,7,7v29.86      C111.18,148.09,108.05,151.22,104.18,151.22z"></path></g><g><path class="st0" d="M491.5,374.78H388.97c-3.87,0-7-3.13-7-7V344.5c0-15.96-12.98-28.95-28.94-28.95c-3.87,0-7-3.13-7-7V206.02      c0-3.87,3.13-7,7-7c80.21,0,145.47,65.26,145.47,145.47v23.28C498.5,371.65,495.37,374.78,491.5,374.78z M395.97,360.78h88.53      V344.5c0-70.15-55.22-127.64-124.47-131.29v88.92c20.36,3.35,35.94,21.08,35.94,42.38V360.78z"></path></g><g><path class="st0" d="M158.97,312.98c-31.51,0-61.51-9.95-86.77-28.78c-3.1-2.31-3.74-6.7-1.43-9.8c2.31-3.1,6.7-3.74,9.8-1.43      c20.94,15.61,45.5,24.47,71.4,25.82v-88.92c-20.36-3.35-35.94-21.08-35.94-42.38v-16.28H27.5v16.28      c0,27.55,8.47,53.94,24.49,76.33c2.25,3.14,1.53,7.52-1.62,9.77c-3.14,2.25-7.52,1.53-9.77-1.62      c-17.73-24.78-27.1-53.99-27.1-84.47v-23.28c0-3.87,3.13-7,7-7h102.53c3.87,0,7,3.13,7,7v23.28c0,15.96,12.98,28.95,28.94,28.95      c3.87,0,7,3.13,7,7v102.53C165.97,309.84,162.84,312.98,158.97,312.98z"></path></g></g></g></g></svg>